<?xml version="1.0" encoding="UTF-8"?>
<svg id="Layer_1" data-name="Layer 1" xmlns="http://www.w3.org/2000/svg" viewBox="0 0 599.51 433.71">
  <defs>
    <style>
      .cls-1 {
        fill: #8585bd;
      }
    </style>
  </defs>
  <path class="cls-1" d="M412.44,125.28c21.49-35.92,56.96-69.96,97.02-83.92,6.14-2.03,12.53-3.51,19.08-4.28.95-.08,1.95.04,2.86.33,0,0-2.8-.33-2.8-.33,12.58-.84,25.3,1.29,36.84,6.27,13.92,6.13,28.99,18.08,33.31,33.28,3.29,12.41-4.55,22.18-16,25.74-5.86,2.03-11.95,2.67-17.87,3.44,0,0-17.12,2.23-17.12,2.23-.03.02,2.4-1.23,2.4-1.22-.72.76-2.06,1.32-3.11,1.28,0,0,.67-.05.67-.05-7.13.9-14.22,1.91-21.26,3.15-7.06,1.24-14.11,2.74-21.03,4.61-.25.06-.51.09-.76.09,0,0,.9-.13.9-.13-8.15,2.39-27.99,8-31.26,15.92-1.38,3.41.16,7.3,1.84,10.51,0,0-2.9,1.69-2.9,1.69-2.39-3.95-4.4-8.78-2.78-13.57,3.02-8.28,13.86-12.47,21.21-15.93,3.96-1.71,8-3.21,12.07-4.58l.9-.13c-.29,0-.59.04-.87.13,0,0,.1-.03.1-.03,6.9-2.3,13.98-4.24,21.05-5.91,7.34-1.67,14.69-3.34,22.09-4.51-1.03-.04-2.35.51-3.05,1.27,0,0,2.41-1.23,2.42-1.22,0,0,17.04-2.88,17.04-2.88,7.5-1.35,15.95-2.19,21.87-6.98,9.5-8.48-3.96-21.59-11.1-26.96-12.58-9.34-28.97-13.19-44.44-11.55,0,0-2.8-.33-2.8-.33.86.3,1.81.41,2.72.33-11.13.47-22.34,3.5-33.05,8.07-32.68,14.34-60.87,38.82-81.4,68.02,0,0-2.82-1.83-2.82-1.83h0Z"/>
  <ellipse class="cls-1" cx="396.44" cy="241.22" rx="7.93" ry="14.67" transform="translate(-25.83 48.77) rotate(-6.82)"/>
  <ellipse class="cls-1" cx="191.23" cy="257.32" rx="13.68" ry="7.39" transform="translate(-72.6 439.47) rotate(-88)"/>
  <path class="cls-1" d="M438.07,307.65c-.12.02-.24.04-.36.06-1.48.27-2.94.66-4.37,1.16-.98.35-1.94.76-2.89,1.22-6.53,3.22-12.52,7.67-18.76,11.52-7.51,4.63-15.91,8.53-24.62,7.96-9.09-.59-17.31-5.99-23.98-12.48-5.57-5.42-3.87-4.11-6.96-7.33-1.73-1.82-3.29-3.82-4.62-5.98l-.13-.21c-2.72-4.42-4.48-9.42-5.16-14.62-2.64-20.34-3.32-51.45-2.6-68.25.49-11.63,1.02-23.29,2.92-34.77,1.37-8.18,3.5-16.42,7.96-23.29,6.49-10.01,17.16-16.06,27.71-20.96,11.67-5.42,23.72-9.91,36.04-13.44h0c.24-.06.49-.13.73-.2,3.1-5.32,6.53-10.45,10.21-15.37,8.92-11.91,19.22-22.67,30.08-32.82C418.44,31.05,357.06,0,288.44,0c-64.83,0-123.17,27.72-163.86,71.94-3.69-.35-7.21-.5-10.41-.37-48.14-1.68-78.27,33.83-78.27,33.83-4.04,4.36-7.82,8.95-11.19,13.83C5,147.76,2.22,183.11.31,217.64c-.8,14.55.09,29.14.98,43.68,1.02,16.67,2.05,33.39,4.97,49.84,3.91,22.03,12.84,45.47,32.69,56.17l7.72.36-1.58-18.92,9.42,19.19,28.99,4.34,6.14.05c8.08-1.2,14.78-7.53,20.17-15.9,7.59-11.77,11.23-25.65,10.93-39.66l-.51-23.39c-.05-2.5-1.4-4.82-3.57-6.06-3.82-2.17-8.3-1.71-18.22-4.75-20.84-6.39-21.81-30.42-10.87-42.75,10.5-11.84,20.5-9.27,29.22-2.31-.04,1.11,1.31,10.59-4.63,20.37,21.03-10.86,28.07-28.79,43.86-46.31-7.9,16.68-19.3,42.43-35.09,52.17,18.79,3.58,38.91-10.07,52.11-23.79,6.72-6.98,10.53-16.15,14.08-25.12,9-22.78,8.55-21.16,17.12-41.94,6.05,17.82,8.81,36.57,8.16,55.36l-.05,1.52c15.9-6.1,18.01-46.04,19.26-38.16,2.56,16.06,4.37,23.41,1.23,39.14l-2.69,10.6-.2.74c-2,5.65-3.96,11.84-3.96,17.72,0,3.45.68,6.8,2.42,9.86.95,1.68,2.2,3.19,2.89,4.99.42,1.09.61,2.21.61,3.34,0,4.08-2.47,8.23-5.29,11.42-2.84,3.23-5.7,7.04-7.95,10.42-1.23,1.85-2.63,3.57-4.19,5.15-2.2,2.22-4.59,4.31-7.4,5.68-13.58,6.62-16.86,5.66-30.1,6.62l-6.54.21c-15.82.51-30.46,9.03-38.2,22.83-4.86,8.66-6.6,18.58,1.48,27.3,38.67,41.76,104.11,66.08,156.54,66.08,74.17,0,137.33-36.26,177.78-92.04v-7.48c-.21-16.54-14.37-29.28-29.96-26.55Z"/>
</svg>